<svg width="26" height="26" viewBox="0 0 24 24" fill="none" xmlns="http://www.w3.org/2000/svg">
<path d="M17 10H20M20 10H23M20 10V7M20 10V13M1 20V19C1 17.1435 1.7375 15.363 3.05025 14.0503C4.36301 12.7375 6.14348 12 8 12M8 12C9.85652 12 11.637 12.7375 12.9497 14.0503C14.2625 15.363 15 17.1435 15 19V20M8 12C9.06087 12 10.0783 11.5786 10.8284 10.8284C11.5786 10.0783 12 9.06087 12 8C12 6.93913 11.5786 5.92172 10.8284 5.17157C10.0783 4.42143 9.06087 4 8 4C6.93913 4 5.92172 4.42143 5.17157 5.17157C4.42143 5.92172 4 6.93913 4 8C4 9.06087 4.42143 10.0783 5.17157 10.8284C5.92172 11.5786 6.93913 12 8 12Z" stroke="#8BA7C0" stroke-width="1.5" stroke-linecap="round" stroke-linejoin="round"/>
</svg>
