<svg width="26" height="26" viewBox="0 0 24 24" fill="none" xmlns="http://www.w3.org/2000/svg">
<path d="M2.31501 12.698C2.26501 12.271 2.24001 12.057 2.25101 11.881C2.27775 11.4326 2.45467 11.0062 2.75326 10.6706C3.05186 10.335 3.45474 10.1097 3.89701 10.031C4.07101 10 4.28601 10 4.71701 10H15.284C15.714 10 15.929 10 16.103 10.03C16.5453 10.1087 16.9482 10.334 17.2467 10.6696C17.5453 11.0052 17.7223 11.4316 17.749 11.88C17.759 12.057 17.735 12.27 17.685 12.698L17.284 16.126C17.1269 17.4684 16.4823 18.7064 15.4727 19.6049C14.463 20.5034 13.1586 20.9998 11.807 21H8.19301C6.84144 20.9998 5.53699 20.5034 4.52733 19.6049C3.51766 18.7064 2.8731 17.4684 2.71601 16.126L2.31501 12.698Z" stroke="#8BA7C0" stroke-width="1.5"/>
<path d="M17 17H19C19.394 17 19.7841 16.9224 20.1481 16.7716C20.512 16.6209 20.8427 16.3999 21.1213 16.1213C21.3999 15.8427 21.6209 15.512 21.7716 15.1481C21.9224 14.7841 22 14.394 22 14C22 13.606 21.9224 13.2159 21.7716 12.8519C21.6209 12.488 21.3999 12.1573 21.1213 11.8787C20.8427 11.6001 20.512 11.3791 20.1481 11.2284C19.7841 11.0776 19.394 11 19 11H17.5" stroke="#8BA7C0" stroke-width="1.5"/>
<path d="M9.99999 2C9.86865 2.13131 9.76445 2.2872 9.69337 2.45879C9.62228 2.63037 9.58569 2.81427 9.58569 3C9.58569 3.18573 9.62228 3.36963 9.69337 3.54121C9.76445 3.7128 9.86865 3.86869 9.99999 4C10.1313 4.13131 10.2355 4.2872 10.3066 4.45879C10.3777 4.63037 10.4143 4.81427 10.4143 5C10.4143 5.18573 10.3777 5.36963 10.3066 5.54121C10.2355 5.7128 10.1313 5.86869 9.99999 6M4.99999 7.5L5.11599 7.384C5.3616 7.13882 5.5104 6.8132 5.53502 6.46704C5.55964 6.12088 5.45843 5.77747 5.24999 5.5C5.04156 5.22253 4.94034 4.87912 4.96496 4.53296C4.98959 4.1868 5.13839 3.86118 5.38399 3.616L5.49999 3.5M14.5 7.5L14.616 7.384C14.8616 7.13882 15.0104 6.8132 15.035 6.46704C15.0596 6.12088 14.9584 5.77747 14.75 5.5C14.5416 5.22253 14.4403 4.87912 14.465 4.53296C14.4896 4.1868 14.6384 3.86118 14.884 3.616L15 3.5" stroke="#8BA7C0" stroke-width="1.5" stroke-linecap="round" stroke-linejoin="round"/>
</svg>
