<svg width="26" height="26" viewBox="0 0 26 26" fill="none" xmlns="http://www.w3.org/2000/svg">
<path d="M5.41666 21.6667V20.5833C5.41666 18.5721 6.21561 16.6433 7.63776 15.2211C9.05991 13.799 10.9888 13 13 13M13 13C15.0112 13 16.9401 13.799 18.3622 15.2211C19.7844 16.6433 20.5833 18.5721 20.5833 20.5833V21.6667M13 13C14.1493 13 15.2515 12.5435 16.0641 11.7308C16.8768 10.9181 17.3333 9.81595 17.3333 8.66668C17.3333 7.51741 16.8768 6.4152 16.0641 5.60255C15.2515 4.78989 14.1493 4.33334 13 4.33334C11.8507 4.33334 10.7485 4.78989 9.93586 5.60255C9.1232 6.4152 8.66666 7.51741 8.66666 8.66668C8.66666 9.81595 9.1232 10.9181 9.93586 11.7308C10.7485 12.5435 11.8507 13 13 13Z" stroke="#8BA7C0" stroke-width="1.5" stroke-linecap="round" stroke-linejoin="round"/>
</svg>
